<svg width="215" height="47" viewBox="0 0 215 47" xmlns="http://www.w3.org/2000/svg"><title>seek-learning-logo-colour-svg</title><g fill="none" fill-rule="evenodd"><path d="M58.64 31.21c-2.563 0-4.88-.284-6.94-2.346l2.657-2.657c1.346 1.342 3.097 1.53 4.346 1.53 1.41 0 2.878-.468 2.878-1.686 0-.813-.435-1.376-1.717-1.503l-2.567-.25c-2.94-.278-4.752-1.56-4.752-4.562 0-3.374 2.968-5.188 6.285-5.188 2.532 0 4.658.44 6.224 1.906l-2.503 2.532c-.936-.842-2.376-1.093-3.785-1.093-1.625 0-2.314.75-2.314 1.562 0 .595.253 1.283 1.69 1.407l2.565.252c3.22.313 4.85 2.03 4.85 4.78 0 3.597-3.066 5.317-6.914 5.317M71.058 24.144c0 2.092 1.283 3.625 3.566 3.625 1.78 0 2.656-.5 3.688-1.534l2.474 2.408c-1.66 1.657-3.254 2.564-6.194 2.564-3.846 0-7.537-1.75-7.537-8.347 0-5.313 2.877-8.314 7.098-8.314 4.536 0 7.097 3.317 7.097 7.785v1.814H71.058zm5.817-4.535c-.44-.968-1.348-1.687-2.722-1.687-1.377 0-2.283.72-2.722 1.686-.247.594-.34 1.033-.372 1.75h6.192c-.032-.717-.124-1.156-.375-1.75zM87.1 24.144c0 2.092 1.285 3.625 3.567 3.625 1.782 0 2.656-.5 3.692-1.534l2.466 2.408c-1.655 1.657-3.252 2.564-6.19 2.564-3.848 0-7.54-1.75-7.54-8.347 0-5.313 2.878-8.314 7.103-8.314 4.53 0 7.097 3.317 7.097 7.785v1.814H87.1zm5.818-4.535c-.437-.968-1.345-1.687-2.72-1.687-1.377 0-2.285.72-2.72 1.686-.253.594-.348 1.033-.377 1.75h6.194c-.03-.717-.126-1.156-.376-1.75zM109.74 31.022l-3.998-6.787-1.723 1.94v4.847h-4.065V8.766h4.064v12.627l5.41-6.658h4.913l-5.818 6.564 6.254 9.722h-5.04" fill="#000"/><path d="M22.82.654c12.453 0 22.544 10.085 22.544 22.527 0 12.44-10.09 22.526-22.543 22.526C10.375 45.706.28 35.62.28 23.18.28 10.74 10.375.655 22.82.655z" fill="#0D3880"/><path d="M23.357 9.246c0-.778.628-1.41 1.405-1.41.78 0 1.41.632 1.41 1.41 0 .775-.63 1.405-1.41 1.405-.777 0-1.405-.63-1.405-1.404M27.737 13.98c0-.86.698-1.555 1.552-1.555.86 0 1.555.694 1.555 1.554 0 .855-.696 1.55-1.556 1.55-.855 0-1.553-.695-1.553-1.55M23.357 13.98c0-.78.628-1.41 1.405-1.41.78 0 1.41.63 1.41 1.41 0 .775-.63 1.406-1.41 1.406-.777 0-1.405-.63-1.405-1.407M32.404 18.726c0-.965.78-1.743 1.746-1.743.963 0 1.74.778 1.74 1.743 0 .965-.777 1.743-1.74 1.743-.966 0-1.746-.78-1.746-1.744M27.737 18.712c0-.857.698-1.553 1.552-1.553.86 0 1.555.695 1.555 1.552 0 .857-.696 1.55-1.556 1.55-.855 0-1.553-.693-1.553-1.55M23.357 18.712c0-.777.628-1.408 1.405-1.408.78 0 1.41.63 1.41 1.408 0 .777-.63 1.407-1.41 1.407-.777 0-1.405-.63-1.405-1.408M19.168 18.712c0-.68.552-1.23 1.232-1.23.685 0 1.236.55 1.236 1.23 0 .68-.55 1.23-1.236 1.23-.68 0-1.232-.55-1.232-1.23M15.676 18.712c0-.584.475-1.057 1.057-1.057s1.056.473 1.056 1.057-.475 1.057-1.057 1.057-1.057-.474-1.057-1.058M12.348 18.712c0-.487.393-.88.883-.88.485 0 .88.393.88.88s-.395.88-.88.88c-.49 0-.882-.393-.882-.88M9.533 18.712c0-.39.315-.704.705-.704.386 0 .705.315.705.704 0 .39-.32.703-.705.703-.39 0-.705-.313-.705-.703M6.864 18.712c0-.293.237-.528.53-.528.292 0 .527.235.527.528 0 .292-.234.528-.525.528-.294 0-.53-.236-.53-.528M4.61 18.712c0-.195.16-.35.357-.35.19 0 .35.155.35.35 0 .195-.16.353-.35.353-.198 0-.356-.158-.356-.353M32.404 23.458c0-.96.78-1.744 1.746-1.744.963 0 1.74.784 1.74 1.744 0 .965-.777 1.745-1.74 1.745-.966 0-1.746-.78-1.746-1.745M27.737 23.445c0-.858.698-1.552 1.552-1.552.86 0 1.555.694 1.555 1.552 0 .857-.696 1.553-1.556 1.553-.855 0-1.553-.696-1.553-1.553M23.357 23.445c0-.78.628-1.408 1.405-1.408.78 0 1.41.63 1.41 1.408 0 .777-.63 1.408-1.41 1.408-.777 0-1.405-.63-1.405-1.408M19.168 23.445c0-.682.552-1.23 1.232-1.23.685 0 1.236.548 1.236 1.23 0 .68-.55 1.23-1.236 1.23-.68 0-1.232-.55-1.232-1.23M15.676 23.445c0-.584.475-1.056 1.057-1.056s1.056.47 1.056 1.055c0 .582-.475 1.055-1.057 1.055s-1.057-.473-1.057-1.055M12.348 23.445c0-.487.393-.88.883-.88.485 0 .88.393.88.88s-.395.88-.88.88c-.49 0-.882-.393-.882-.88M9.533 23.445c0-.39.315-.705.705-.705.386 0 .705.316.705.705 0 .388-.32.703-.705.703-.39 0-.705-.315-.705-.703M6.864 23.445c0-.292.237-.528.53-.528.292 0 .527.236.527.528 0 .29-.234.527-.525.527-.294 0-.53-.237-.53-.527M4.61 23.445c0-.195.16-.354.357-.354.19 0 .35.16.35.355 0 .194-.16.352-.35.352-.198 0-.356-.158-.356-.352M37.187 23.49c0-1.054.86-1.91 1.912-1.91 1.055 0 1.908.856 1.908 1.91 0 1.054-.853 1.91-1.91 1.91-1.05 0-1.91-.856-1.91-1.91M32.404 28.192c0-.963.78-1.743 1.746-1.743.963 0 1.74.78 1.74 1.742s-.777 1.744-1.74 1.744c-.966 0-1.746-.782-1.746-1.744M27.737 28.18c0-.86.698-1.555 1.552-1.555.86 0 1.555.695 1.555 1.555 0 .857-.696 1.55-1.556 1.55-.855 0-1.553-.693-1.553-1.55M23.357 28.18c0-.778.628-1.41 1.405-1.41.78 0 1.41.632 1.41 1.41 0 .776-.63 1.405-1.41 1.405-.777 0-1.405-.63-1.405-1.405M19.168 28.18c0-.682.552-1.234 1.232-1.234.685 0 1.236.552 1.236 1.234 0 .68-.55 1.23-1.236 1.23-.68 0-1.232-.55-1.232-1.23M15.676 28.18c0-.588.475-1.057 1.057-1.057s1.056.47 1.056 1.057c0 .58-.475 1.053-1.057 1.053s-1.057-.472-1.057-1.053M12.348 28.18c0-.49.393-.882.883-.882.485 0 .88.393.88.882 0 .483-.395.878-.88.878-.49 0-.882-.395-.882-.878M9.533 28.18c0-.388.315-.705.705-.705.386 0 .705.317.705.705 0 .39-.32.705-.705.705-.39 0-.705-.316-.705-.705M6.864 28.18c0-.292.237-.532.53-.532.292 0 .527.24.527.532 0 .29-.234.526-.525.526-.294 0-.53-.236-.53-.526M4.61 28.18c0-.195.16-.355.357-.355.19 0 .35.16.35.355 0 .19-.16.348-.35.348-.198 0-.356-.158-.356-.348M27.737 32.912c0-.858.698-1.553 1.552-1.553.86 0 1.555.694 1.555 1.552 0 .857-.696 1.553-1.556 1.553-.855 0-1.553-.696-1.553-1.553M23.357 32.912c0-.777.628-1.41 1.405-1.41.78 0 1.41.633 1.41 1.41 0 .775-.63 1.41-1.41 1.41-.777 0-1.405-.635-1.405-1.41M23.357 37.644c0-.777.628-1.404 1.405-1.404.78 0 1.41.627 1.41 1.404 0 .778-.63 1.408-1.41 1.408-.777 0-1.405-.63-1.405-1.408" fill="#FFF"/><path d="M120.608 31.025c-2.844 0-4.134-1.85-4.134-4.33V8.754h2.38v17.84c0 1.587.53 2.38 2.183 2.38h1.29v2.05h-1.72M124.78 23.522c0 3.57 1.688 5.62 4.796 5.62 1.886 0 2.977-.563 4.267-1.852l1.622 1.42c-1.655 1.654-3.176 2.513-5.955 2.513-4.3 0-7.11-2.578-7.11-8.33 0-5.256 2.545-8.33 6.683-8.33 4.198 0 6.68 3.04 6.68 7.866v1.092H124.78zm8.104-4.497c-.63-1.488-2.082-2.446-3.8-2.446-1.723 0-3.18.957-3.808 2.445-.362.892-.428 1.388-.495 2.71h8.603c-.067-1.322-.136-1.818-.5-2.71zM147.81 31.025v-1.553c-1.32 1.322-2.512 1.75-4.695 1.75-2.25 0-3.574-.428-4.598-1.487-.793-.792-1.225-2.015-1.225-3.305 0-2.842 1.985-4.694 5.624-4.694h4.895v-1.552c0-2.382-1.19-3.572-4.168-3.572-2.082 0-3.14.496-4.1 1.852l-1.622-1.488c1.457-1.884 3.11-2.414 5.757-2.414 4.365 0 6.517 1.885 6.517 5.422v11.04h-2.383zm0-7.503h-4.562c-2.45 0-3.64.99-3.64 2.877 0 1.882 1.158 2.774 3.74 2.774 1.387 0 2.612-.1 3.637-1.09.563-.53.826-1.457.826-2.812v-1.75zM161.95 17.87c-.892-.894-1.555-1.192-2.812-1.192-2.382 0-3.904 1.885-3.904 4.365v9.982h-2.38V14.762h2.38v1.983c.893-1.356 2.68-2.183 4.565-2.183 1.554 0 2.744.363 3.902 1.523l-1.753 1.784M175.45 31.025V21.01c0-2.877-1.557-4.332-4.004-4.332-2.447 0-4.035 1.488-4.035 4.33v10.017h-2.38V14.76h2.38v1.785c1.157-1.32 2.746-1.982 4.565-1.982 1.753 0 3.175.53 4.17 1.52 1.155 1.125 1.686 2.644 1.686 4.53v10.412h-2.38M180.66 8.73h2.677v2.678h-2.678V8.73zm.13 6.03h2.383v16.264h-2.384V14.76zM196.613 31.025V21.01c0-2.877-1.553-4.332-4.003-4.332-2.448 0-4.036 1.488-4.036 4.33v10.017h-2.38V14.76h2.38v1.785c1.158-1.32 2.746-1.982 4.568-1.982 1.75 0 3.172.53 4.166 1.52 1.158 1.125 1.688 2.644 1.688 4.53v10.412h-2.383M207.572 38.497c-2.447 0-3.805-.63-5.523-2.183l1.552-1.52c1.192 1.057 2.018 1.62 3.904 1.62 3.142 0 4.466-2.215 4.466-4.99v-2.547c-1.324 1.685-2.81 2.115-4.565 2.115-1.653 0-3.076-.595-3.936-1.453-1.62-1.622-1.983-4.134-1.983-6.78 0-2.643.362-5.155 1.984-6.776.86-.86 2.315-1.422 3.97-1.422 1.785 0 3.242.397 4.564 2.116V14.76h2.35v16.76c0 4.033-2.514 6.977-6.782 6.977m.365-21.82c-3.54 0-4.07 3.043-4.07 6.084 0 3.042.53 6.086 4.07 6.086 3.538 0 4.035-3.044 4.035-6.085 0-3.04-.497-6.082-4.035-6.082" fill="#4BBA40"/></g></svg>